<svg id="Layer_1" data-name="Layer 1" xmlns="http://www.w3.org/2000/svg" xmlns:xlink="http://www.w3.org/1999/xlink" viewBox="0 0 2300 750"><defs><style>.cls-1{fill:#2a3484;}.cls-2,.cls-3,.cls-4{opacity:0.64;}.cls-3{fill:url(#linear-gradient);}.cls-4{fill:url(#linear-gradient-3);}</style><linearGradient id="linear-gradient" x1="630.11" y1="225.6" x2="867.02" y2="474.66" gradientUnits="userSpaceOnUse"><stop offset="0" stop-color="#0c1ce3"/><stop offset="1" stop-color="#0ed1e1"/></linearGradient><linearGradient id="linear-gradient-3" x1="630.11" y1="225.6" x2="867.02" y2="474.66" gradientTransform="translate(490.13 -435.74) rotate(45)" xlink:href="#linear-gradient"/></defs><title>COMITspellout_screen</title><path class="cls-1" d="M598.3,629.82c-163.65-142.49-163.65-369.62,0-512.11l35.34,25c-71.29,71.25-107.25,148-107.25,231.4s36,160.15,107.25,231.4Z"/><path class="cls-1" d="M943.8,117.71c163.65,142.49,163.65,369.62,0,512.11l-35.34-24.35c71.29-71.25,107.25-148,107.25-231.4s-36-160.15-107.25-231.4Z"/><path class="cls-1" d="M405.7,483.13c0,45.79-14.26,81.87-43.42,108.92S293,632.29,242.4,632.29c-51.19,0-92-20.81-123.12-62.44C87.53,528.23,72,472.72,72,402.65s16.2-124.19,48.6-163.74c32.4-38.85,73.87-58.28,125.06-58.28,87.48,0,140,51.35,160.06,126.27l-55.08,11.8c-17.5-54.81-55.73-88.81-105-88.81-34.34,0-62.21,15.27-84.88,45.79s-33.7,72.85-33.7,127c0,54.81,10.37,98.52,30.46,131.13S206.76,583,245.64,583c64.8,0,105-39.55,105-99.91Z"/><path class="cls-1" d="M1128.1,624.66V188.27h73.23L1338.7,483.82l136.08-295.55h71.93V624.66h-51.19V266l-140,303.88h-34.34L1179.3,261.11V624.66Z"/><path class="cls-1" d="M1667.24,624.66V188.27h51.2V624.66Z"/><path class="cls-1" d="M1909.59,624.66V235.44H1776.76V188.27h316.86v47.17H1960.78V624.66Z"/><path class="cls-1" d="M2156.5,235.89V193.81h-14.36V188.7h34.25v5.11H2162v42.08Z"/><path class="cls-1" d="M2182.76,235.89V188.7h7.92l14.85,32,14.71-32H2228v47.19h-5.53V197.11L2207.35,230h-3.71l-15.34-33.38v39.31Z"/><g class="cls-2"><ellipse class="cls-3" cx="771.05" cy="373.76" rx="180.09" ry="77.55"/></g><g class="cls-2"><ellipse class="cls-3" cx="771.05" cy="373.76" rx="77.55" ry="180.09"/></g><g class="cls-2"><ellipse class="cls-4" cx="771.05" cy="373.76" rx="77.55" ry="180.09" transform="translate(-38.46 654.68) rotate(-45)"/></g><g class="cls-2"><ellipse class="cls-4" cx="771.05" cy="373.76" rx="180.09" ry="77.55" transform="translate(-38.46 654.68) rotate(-45)"/></g></svg>