<svg id="Layer_1" data-name="Layer 1" xmlns="http://www.w3.org/2000/svg" xmlns:xlink="http://www.w3.org/1999/xlink"
     viewBox="0 0 2300 750">
    <defs>
        <style>
            .cls-1{fill:#2a3484;}.cls-2,.cls-3,.cls-4{opacity:0.64;}.cls-3{fill:url(#linear-gradient);}.cls-4{fill:url(#linear-gradient-3);}
        </style>
        <linearGradient id="linear-gradient" x1="697.31" y1="225.6" x2="934.22" y2="474.66"
                        gradientUnits="userSpaceOnUse">
            <stop offset="0" stop-color="#0c1ce3"/>
            <stop offset="1" stop-color="#0ed1e1"/>
        </linearGradient>
        <linearGradient id="linear-gradient-3" x1="697.31" y1="225.6" x2="934.22" y2="474.66"
                        gradientTransform="translate(509.81 -483.25) rotate(45)" xlink:href="#linear-gradient"/>
    </defs>
    <title>COMITspellout_screenPLAIN</title>
    <path class="cls-1"
          d="M665.5,629.82c-163.65-142.49-163.65-369.62,0-512.11l35.34,25c-71.29,71.25-107.25,148-107.25,231.4s36,160.15,107.25,231.4Z"/>
    <path class="cls-1"
          d="M1011,117.71c163.65,142.49,163.65,369.62,0,512.11l-35.34-24.35c71.29-71.25,107.25-148,107.25-231.4s-36-160.15-107.25-231.4Z"/>
    <path class="cls-1"
          d="M472.89,483.13c0,45.79-14.25,81.87-43.41,108.92s-69.34,40.24-119.88,40.24c-51.19,0-92-20.81-123.12-62.44-31.75-41.62-47.3-97.13-47.3-167.2s16.2-124.19,48.6-163.74c32.4-38.85,73.87-58.28,125.06-58.28,87.48,0,140,51.35,160.05,126.27l-55.08,11.8c-17.49-54.81-55.72-88.81-105-88.81-34.34,0-62.21,15.27-84.89,45.79s-33.69,72.85-33.69,127c0,54.81,10.36,98.52,30.45,131.13S274,583,312.84,583c64.8,0,105-39.55,105-99.91Z"/>
    <path class="cls-1"
          d="M1195.3,624.66V188.27h73.23L1405.9,483.82,1542,188.27h71.92V624.66h-51.19V266l-140,303.88H1388.4L1246.49,261.11V624.66Z"/>
    <path class="cls-1" d="M1734.44,624.66V188.27h51.19V624.66Z"/>
    <path class="cls-1" d="M1976.79,624.66V235.44H1844V188.27h316.87v47.17H2028V624.66Z"/>
    <g class="cls-2">
        <ellipse class="cls-3" cx="838.24" cy="373.76" rx="180.09" ry="77.55"/>
    </g>
    <g class="cls-2">
        <ellipse class="cls-3" cx="838.24" cy="373.76" rx="77.55" ry="180.09"/>
    </g>
    <g class="cls-2">
        <ellipse class="cls-4" cx="838.24" cy="373.76" rx="77.55" ry="180.09"
                 transform="translate(-18.78 702.2) rotate(-45)"/>
    </g>
    <g class="cls-2">
        <ellipse class="cls-4" cx="838.24" cy="373.76" rx="180.09" ry="77.55"
                 transform="translate(-18.78 702.2) rotate(-45)"/>
    </g>
</svg>
